<mxfile host="app.diagrams.net" modified="2021-06-18T13:42:33.235Z" agent="5.0 (Windows)" etag="f58HdXLOTGYFCbG8oZm0" version="14.8.0" type="github">
  <diagram id="uoLd6UYFoCowsgiO-rjb" name="use case">
    <mxGraphModel dx="2062" dy="820" grid="1" gridSize="10" guides="1" tooltips="1" connect="1" arrows="1" fold="1" page="1" pageScale="1" pageWidth="850" pageHeight="1100" math="0" shadow="0">
      <root>
        <mxCell id="0" />
        <mxCell id="1" parent="0" />
        <mxCell id="-FSr3Ysuj9gVf_e1pzT2-61" style="edgeStyle=none;rounded=0;orthogonalLoop=1;jettySize=auto;html=1;" edge="1" parent="1" source="-FSr3Ysuj9gVf_e1pzT2-1" target="-FSr3Ysuj9gVf_e1pzT2-50">
          <mxGeometry relative="1" as="geometry" />
        </mxCell>
        <mxCell id="-FSr3Ysuj9gVf_e1pzT2-62" style="edgeStyle=none;rounded=0;orthogonalLoop=1;jettySize=auto;html=1;" edge="1" parent="1" source="-FSr3Ysuj9gVf_e1pzT2-1" target="-FSr3Ysuj9gVf_e1pzT2-51">
          <mxGeometry relative="1" as="geometry" />
        </mxCell>
        <mxCell id="-FSr3Ysuj9gVf_e1pzT2-63" style="edgeStyle=none;rounded=0;orthogonalLoop=1;jettySize=auto;html=1;" edge="1" parent="1" source="-FSr3Ysuj9gVf_e1pzT2-1" target="-FSr3Ysuj9gVf_e1pzT2-53">
          <mxGeometry relative="1" as="geometry" />
        </mxCell>
        <mxCell id="-FSr3Ysuj9gVf_e1pzT2-68" style="edgeStyle=none;rounded=0;orthogonalLoop=1;jettySize=auto;html=1;entryX=1;entryY=0.5;entryDx=0;entryDy=0;" edge="1" parent="1" source="-FSr3Ysuj9gVf_e1pzT2-1" target="-FSr3Ysuj9gVf_e1pzT2-54">
          <mxGeometry relative="1" as="geometry" />
        </mxCell>
        <mxCell id="-FSr3Ysuj9gVf_e1pzT2-1" value="&lt;div&gt;Operator&lt;/div&gt;" style="shape=umlActor;verticalLabelPosition=bottom;verticalAlign=top;html=1;outlineConnect=0;" vertex="1" parent="1">
          <mxGeometry x="640" y="50" width="30" height="60" as="geometry" />
        </mxCell>
        <mxCell id="-FSr3Ysuj9gVf_e1pzT2-64" style="edgeStyle=none;rounded=0;orthogonalLoop=1;jettySize=auto;html=1;" edge="1" parent="1" source="-FSr3Ysuj9gVf_e1pzT2-2" target="-FSr3Ysuj9gVf_e1pzT2-53">
          <mxGeometry relative="1" as="geometry" />
        </mxCell>
        <mxCell id="-FSr3Ysuj9gVf_e1pzT2-66" style="edgeStyle=none;rounded=0;orthogonalLoop=1;jettySize=auto;html=1;" edge="1" parent="1" source="-FSr3Ysuj9gVf_e1pzT2-2" target="-FSr3Ysuj9gVf_e1pzT2-65">
          <mxGeometry relative="1" as="geometry" />
        </mxCell>
        <mxCell id="-FSr3Ysuj9gVf_e1pzT2-69" style="edgeStyle=none;rounded=0;orthogonalLoop=1;jettySize=auto;html=1;" edge="1" parent="1" source="-FSr3Ysuj9gVf_e1pzT2-2" target="-FSr3Ysuj9gVf_e1pzT2-54">
          <mxGeometry relative="1" as="geometry" />
        </mxCell>
        <mxCell id="-FSr3Ysuj9gVf_e1pzT2-70" style="edgeStyle=none;rounded=0;orthogonalLoop=1;jettySize=auto;html=1;" edge="1" parent="1" source="-FSr3Ysuj9gVf_e1pzT2-2" target="-FSr3Ysuj9gVf_e1pzT2-55">
          <mxGeometry relative="1" as="geometry" />
        </mxCell>
        <mxCell id="-FSr3Ysuj9gVf_e1pzT2-72" style="edgeStyle=none;rounded=0;orthogonalLoop=1;jettySize=auto;html=1;" edge="1" parent="1" source="-FSr3Ysuj9gVf_e1pzT2-2" target="-FSr3Ysuj9gVf_e1pzT2-56">
          <mxGeometry relative="1" as="geometry" />
        </mxCell>
        <mxCell id="-FSr3Ysuj9gVf_e1pzT2-74" style="edgeStyle=none;rounded=0;orthogonalLoop=1;jettySize=auto;html=1;" edge="1" parent="1" source="-FSr3Ysuj9gVf_e1pzT2-2" target="-FSr3Ysuj9gVf_e1pzT2-57">
          <mxGeometry relative="1" as="geometry" />
        </mxCell>
        <mxCell id="-FSr3Ysuj9gVf_e1pzT2-2" value="&lt;div&gt;Manager&lt;/div&gt;" style="shape=umlActor;verticalLabelPosition=bottom;verticalAlign=top;html=1;outlineConnect=0;" vertex="1" parent="1">
          <mxGeometry x="690" y="240" width="30" height="60" as="geometry" />
        </mxCell>
        <mxCell id="-FSr3Ysuj9gVf_e1pzT2-67" style="edgeStyle=none;rounded=0;orthogonalLoop=1;jettySize=auto;html=1;entryX=1;entryY=0.5;entryDx=0;entryDy=0;" edge="1" parent="1" source="-FSr3Ysuj9gVf_e1pzT2-3" target="-FSr3Ysuj9gVf_e1pzT2-65">
          <mxGeometry relative="1" as="geometry" />
        </mxCell>
        <mxCell id="-FSr3Ysuj9gVf_e1pzT2-71" style="edgeStyle=none;rounded=0;orthogonalLoop=1;jettySize=auto;html=1;" edge="1" parent="1" source="-FSr3Ysuj9gVf_e1pzT2-3" target="-FSr3Ysuj9gVf_e1pzT2-55">
          <mxGeometry relative="1" as="geometry" />
        </mxCell>
        <mxCell id="-FSr3Ysuj9gVf_e1pzT2-73" style="edgeStyle=none;rounded=0;orthogonalLoop=1;jettySize=auto;html=1;" edge="1" parent="1" source="-FSr3Ysuj9gVf_e1pzT2-3" target="-FSr3Ysuj9gVf_e1pzT2-56">
          <mxGeometry relative="1" as="geometry" />
        </mxCell>
        <mxCell id="-FSr3Ysuj9gVf_e1pzT2-75" style="edgeStyle=none;rounded=0;orthogonalLoop=1;jettySize=auto;html=1;" edge="1" parent="1" source="-FSr3Ysuj9gVf_e1pzT2-3" target="-FSr3Ysuj9gVf_e1pzT2-57">
          <mxGeometry relative="1" as="geometry" />
        </mxCell>
        <mxCell id="-FSr3Ysuj9gVf_e1pzT2-76" style="edgeStyle=none;rounded=0;orthogonalLoop=1;jettySize=auto;html=1;" edge="1" parent="1" source="-FSr3Ysuj9gVf_e1pzT2-3" target="-FSr3Ysuj9gVf_e1pzT2-58">
          <mxGeometry relative="1" as="geometry" />
        </mxCell>
        <mxCell id="-FSr3Ysuj9gVf_e1pzT2-78" style="edgeStyle=none;rounded=0;orthogonalLoop=1;jettySize=auto;html=1;" edge="1" parent="1" source="-FSr3Ysuj9gVf_e1pzT2-3" target="-FSr3Ysuj9gVf_e1pzT2-77">
          <mxGeometry relative="1" as="geometry" />
        </mxCell>
        <mxCell id="-FSr3Ysuj9gVf_e1pzT2-3" value="&lt;div&gt;Owner&lt;/div&gt;" style="shape=umlActor;verticalLabelPosition=bottom;verticalAlign=top;html=1;outlineConnect=0;" vertex="1" parent="1">
          <mxGeometry x="720" y="520" width="30" height="60" as="geometry" />
        </mxCell>
        <mxCell id="-FSr3Ysuj9gVf_e1pzT2-59" style="edgeStyle=none;rounded=0;orthogonalLoop=1;jettySize=auto;html=1;entryX=0;entryY=0.5;entryDx=0;entryDy=0;" edge="1" parent="1" source="-FSr3Ysuj9gVf_e1pzT2-13" target="-FSr3Ysuj9gVf_e1pzT2-50">
          <mxGeometry relative="1" as="geometry" />
        </mxCell>
        <mxCell id="-FSr3Ysuj9gVf_e1pzT2-60" style="edgeStyle=none;rounded=0;orthogonalLoop=1;jettySize=auto;html=1;" edge="1" parent="1" source="-FSr3Ysuj9gVf_e1pzT2-13" target="-FSr3Ysuj9gVf_e1pzT2-51">
          <mxGeometry relative="1" as="geometry" />
        </mxCell>
        <mxCell id="-FSr3Ysuj9gVf_e1pzT2-13" value="Customer" style="shape=umlActor;verticalLabelPosition=bottom;verticalAlign=top;html=1;" vertex="1" parent="1">
          <mxGeometry x="40" y="60" width="30" height="60" as="geometry" />
        </mxCell>
        <mxCell id="-FSr3Ysuj9gVf_e1pzT2-80" style="edgeStyle=none;rounded=0;orthogonalLoop=1;jettySize=auto;html=1;entryX=0.1;entryY=0.857;entryDx=0;entryDy=0;entryPerimeter=0;" edge="1" parent="1" source="-FSr3Ysuj9gVf_e1pzT2-17" target="-FSr3Ysuj9gVf_e1pzT2-50">
          <mxGeometry relative="1" as="geometry" />
        </mxCell>
        <mxCell id="-FSr3Ysuj9gVf_e1pzT2-85" style="edgeStyle=none;rounded=0;orthogonalLoop=1;jettySize=auto;html=1;entryX=0.086;entryY=0.186;entryDx=0;entryDy=0;entryPerimeter=0;startArrow=none;startFill=0;" edge="1" parent="1" source="-FSr3Ysuj9gVf_e1pzT2-17" target="-FSr3Ysuj9gVf_e1pzT2-56">
          <mxGeometry relative="1" as="geometry" />
        </mxCell>
        <mxCell id="-FSr3Ysuj9gVf_e1pzT2-87" style="edgeStyle=none;rounded=0;orthogonalLoop=1;jettySize=auto;html=1;startArrow=none;startFill=0;" edge="1" parent="1" source="-FSr3Ysuj9gVf_e1pzT2-17" target="-FSr3Ysuj9gVf_e1pzT2-58">
          <mxGeometry relative="1" as="geometry" />
        </mxCell>
        <mxCell id="-FSr3Ysuj9gVf_e1pzT2-17" value="database" style="shape=datastore;whiteSpace=wrap;html=1;" vertex="1" parent="1">
          <mxGeometry x="30" y="340" width="100" height="220" as="geometry" />
        </mxCell>
        <mxCell id="-FSr3Ysuj9gVf_e1pzT2-49" value="front office" style="shape=umlFrame;whiteSpace=wrap;html=1;width=90;height=30;" vertex="1" parent="1">
          <mxGeometry x="210" width="300" height="370" as="geometry" />
        </mxCell>
        <mxCell id="-FSr3Ysuj9gVf_e1pzT2-50" value="order" style="ellipse;whiteSpace=wrap;html=1;" vertex="1" parent="1">
          <mxGeometry x="270" y="30" width="140" height="70" as="geometry" />
        </mxCell>
        <mxCell id="-FSr3Ysuj9gVf_e1pzT2-79" style="edgeStyle=none;rounded=0;orthogonalLoop=1;jettySize=auto;html=1;entryX=1;entryY=0.5;entryDx=0;entryDy=0;" edge="1" parent="1" source="-FSr3Ysuj9gVf_e1pzT2-51" target="-FSr3Ysuj9gVf_e1pzT2-17">
          <mxGeometry relative="1" as="geometry" />
        </mxCell>
        <mxCell id="-FSr3Ysuj9gVf_e1pzT2-51" value="payment" style="ellipse;whiteSpace=wrap;html=1;" vertex="1" parent="1">
          <mxGeometry x="270" y="130" width="140" height="70" as="geometry" />
        </mxCell>
        <mxCell id="-FSr3Ysuj9gVf_e1pzT2-52" value="back office" style="shape=umlFrame;whiteSpace=wrap;html=1;width=80;height=30;" vertex="1" parent="1">
          <mxGeometry x="210" y="400" width="300" height="780" as="geometry" />
        </mxCell>
        <mxCell id="-FSr3Ysuj9gVf_e1pzT2-81" style="edgeStyle=none;rounded=0;orthogonalLoop=1;jettySize=auto;html=1;entryX=1;entryY=0.5;entryDx=0;entryDy=0;" edge="1" parent="1" source="-FSr3Ysuj9gVf_e1pzT2-53" target="-FSr3Ysuj9gVf_e1pzT2-17">
          <mxGeometry relative="1" as="geometry" />
        </mxCell>
        <mxCell id="-FSr3Ysuj9gVf_e1pzT2-53" value="&lt;div&gt;operational &lt;br&gt;&lt;/div&gt;&lt;div&gt;expenses&lt;br&gt;&lt;/div&gt;" style="ellipse;whiteSpace=wrap;html=1;" vertex="1" parent="1">
          <mxGeometry x="270" y="250" width="140" height="70" as="geometry" />
        </mxCell>
        <mxCell id="-FSr3Ysuj9gVf_e1pzT2-83" style="edgeStyle=none;rounded=0;orthogonalLoop=1;jettySize=auto;html=1;entryX=1;entryY=0.5;entryDx=0;entryDy=0;" edge="1" parent="1" source="-FSr3Ysuj9gVf_e1pzT2-54" target="-FSr3Ysuj9gVf_e1pzT2-17">
          <mxGeometry relative="1" as="geometry" />
        </mxCell>
        <mxCell id="-FSr3Ysuj9gVf_e1pzT2-54" value="restock" style="ellipse;whiteSpace=wrap;html=1;" vertex="1" parent="1">
          <mxGeometry x="280" y="560" width="140" height="70" as="geometry" />
        </mxCell>
        <mxCell id="-FSr3Ysuj9gVf_e1pzT2-84" style="edgeStyle=none;rounded=0;orthogonalLoop=1;jettySize=auto;html=1;entryX=1;entryY=0.5;entryDx=0;entryDy=0;startArrow=classic;startFill=1;" edge="1" parent="1" source="-FSr3Ysuj9gVf_e1pzT2-55" target="-FSr3Ysuj9gVf_e1pzT2-17">
          <mxGeometry relative="1" as="geometry" />
        </mxCell>
        <mxCell id="-FSr3Ysuj9gVf_e1pzT2-55" value="stock opname" style="ellipse;whiteSpace=wrap;html=1;" vertex="1" parent="1">
          <mxGeometry x="280" y="670" width="140" height="70" as="geometry" />
        </mxCell>
        <mxCell id="-FSr3Ysuj9gVf_e1pzT2-56" value="reports" style="ellipse;whiteSpace=wrap;html=1;" vertex="1" parent="1">
          <mxGeometry x="280" y="780" width="140" height="70" as="geometry" />
        </mxCell>
        <mxCell id="-FSr3Ysuj9gVf_e1pzT2-82" style="edgeStyle=none;rounded=0;orthogonalLoop=1;jettySize=auto;html=1;entryX=1;entryY=0.5;entryDx=0;entryDy=0;" edge="1" parent="1" source="-FSr3Ysuj9gVf_e1pzT2-57" target="-FSr3Ysuj9gVf_e1pzT2-17">
          <mxGeometry relative="1" as="geometry" />
        </mxCell>
        <mxCell id="-FSr3Ysuj9gVf_e1pzT2-57" value="&lt;div&gt;accruals &lt;br&gt;&lt;/div&gt;&lt;div&gt;(payable and &lt;br&gt;&lt;/div&gt;&lt;div&gt;receivable)&lt;br&gt;&lt;/div&gt;" style="ellipse;whiteSpace=wrap;html=1;" vertex="1" parent="1">
          <mxGeometry x="280" y="430" width="140" height="70" as="geometry" />
        </mxCell>
        <mxCell id="-FSr3Ysuj9gVf_e1pzT2-58" value="&lt;div&gt;employee &lt;br&gt;&lt;/div&gt;&lt;div&gt;performance&lt;br&gt;&lt;/div&gt;" style="ellipse;whiteSpace=wrap;html=1;" vertex="1" parent="1">
          <mxGeometry x="370" y="970" width="140" height="70" as="geometry" />
        </mxCell>
        <mxCell id="-FSr3Ysuj9gVf_e1pzT2-86" style="edgeStyle=none;rounded=0;orthogonalLoop=1;jettySize=auto;html=1;entryX=0.9;entryY=0.864;entryDx=0;entryDy=0;entryPerimeter=0;startArrow=block;startFill=1;" edge="1" parent="1" source="-FSr3Ysuj9gVf_e1pzT2-65" target="-FSr3Ysuj9gVf_e1pzT2-17">
          <mxGeometry relative="1" as="geometry" />
        </mxCell>
        <mxCell id="-FSr3Ysuj9gVf_e1pzT2-65" value="&lt;div&gt;financing and &lt;br&gt;&lt;/div&gt;&lt;div&gt;capital transactions&lt;br&gt;&lt;/div&gt;" style="ellipse;whiteSpace=wrap;html=1;" vertex="1" parent="1">
          <mxGeometry x="340" y="870" width="140" height="70" as="geometry" />
        </mxCell>
        <mxCell id="-FSr3Ysuj9gVf_e1pzT2-77" value="business insight" style="ellipse;whiteSpace=wrap;html=1;" vertex="1" parent="1">
          <mxGeometry x="350" y="1080" width="140" height="70" as="geometry" />
        </mxCell>
      </root>
    </mxGraphModel>
  </diagram>
</mxfile>
